<svg width="123" height="123" viewBox="0 0 123 123" fill="none" xmlns="http://www.w3.org/2000/svg">
<circle cx="61.625" cy="61.2583" r="61.2583" fill="#3B2E74"/>
<path d="M82.0446 47.6078V43.2894H47.2161V51.6848H73.6013V72.9271C73.6013 80.9814 68.3655 84.6924 60.4747 84.6924C54.2329 84.6924 49.6485 82.4708 47.6284 77.2788L40.3889 81.5389C43.786 89.2271 51.3965 93.1128 60.4829 93.1128C72.2325 93.1128 82.0446 86.4564 82.0446 72.9271V47.6078Z" fill="white"/>
<path d="M69.1936 34.3144C69.1389 35.0056 68.9318 35.676 68.5872 36.2776C68.2427 36.8792 67.7692 37.397 67.2007 37.7939C66.9948 37.9295 66.7792 38.0496 66.5554 38.1532C65.7984 38.418 64.9947 38.5237 64.1949 38.4637C63.7297 38.4298 63.2695 38.3449 62.8228 38.2105C62.5363 38.1015 62.2625 37.9618 62.006 37.7939C61.3395 37.342 60.8035 36.7227 60.452 35.9982C60.1004 35.2737 59.9457 34.4694 60.0033 33.6662C60.0609 32.863 60.3288 32.089 60.7801 31.4221C61.2314 30.7551 61.8501 30.2186 62.5744 29.8664C63.2986 29.5142 64.1027 29.3588 64.906 29.4156C65.7093 29.4725 66.4835 29.7397 67.1508 30.1904C67.8182 30.641 68.3553 31.2594 68.7081 31.9833C69.0609 32.7071 69.2171 33.5111 69.161 34.3144H69.1936Z" fill="white"/>
</svg>
